<mxfile host="app.diagrams.net" agent="Mozilla/5.0 (Windows NT 10.0; Win64; x64) AppleWebKit/537.36 (KHTML, like Gecko) Chrome/138.0.0.0 Safari/537.36" version="28.0.6">
  <diagram name="Page-1" id="71OT9WE46iGKhzrE-PTC">
    <mxGraphModel dx="1185" dy="597" grid="1" gridSize="10" guides="1" tooltips="1" connect="1" arrows="1" fold="1" page="1" pageScale="1" pageWidth="850" pageHeight="1100" math="0" shadow="0">
      <root>
        <mxCell id="0" />
        <mxCell id="1" parent="0" />
        <mxCell id="OXJLY-2gsCn3-yETwT6d-1" value="Main loop" style="swimlane;whiteSpace=wrap;html=1;" vertex="1" parent="1">
          <mxGeometry x="120" y="40" width="440" height="440" as="geometry" />
        </mxCell>
        <mxCell id="OXJLY-2gsCn3-yETwT6d-2" style="edgeStyle=orthogonalEdgeStyle;rounded=0;orthogonalLoop=1;jettySize=auto;html=1;entryX=0;entryY=0.5;entryDx=0;entryDy=0;" edge="1" parent="OXJLY-2gsCn3-yETwT6d-1" source="OXJLY-2gsCn3-yETwT6d-3" target="OXJLY-2gsCn3-yETwT6d-9">
          <mxGeometry relative="1" as="geometry" />
        </mxCell>
        <mxCell id="OXJLY-2gsCn3-yETwT6d-3" value="&lt;div&gt;&lt;font style=&quot;font-size: 36px;&quot;&gt;10:35&lt;/font&gt;&lt;/div&gt;&lt;div&gt;&lt;font style=&quot;font-size: 10px;&quot;&gt;Day Radio Alarm on/off&lt;/font&gt;&lt;/div&gt;" style="rounded=0;whiteSpace=wrap;html=1;" vertex="1" parent="OXJLY-2gsCn3-yETwT6d-1">
          <mxGeometry x="40" y="60" width="160" height="80" as="geometry" />
        </mxCell>
        <mxCell id="OXJLY-2gsCn3-yETwT6d-4" value="Standby mode" style="text;html=1;align=center;verticalAlign=middle;resizable=0;points=[];autosize=1;strokeColor=none;fillColor=none;" vertex="1" parent="OXJLY-2gsCn3-yETwT6d-1">
          <mxGeometry x="30" y="38" width="100" height="30" as="geometry" />
        </mxCell>
        <mxCell id="OXJLY-2gsCn3-yETwT6d-5" value="&lt;div&gt;&lt;font style=&quot;font-size: 24px;&quot;&gt;10:35&lt;/font&gt;&lt;/div&gt;&lt;div&gt;&lt;font style=&quot;font-size: 11px;&quot;&gt;12/24h 7:25 Alarm On/Off&lt;/font&gt;&lt;/div&gt;" style="rounded=0;whiteSpace=wrap;html=1;" vertex="1" parent="OXJLY-2gsCn3-yETwT6d-1">
          <mxGeometry x="40" y="200" width="160" height="80" as="geometry" />
        </mxCell>
        <mxCell id="OXJLY-2gsCn3-yETwT6d-6" value="" style="endArrow=classic;html=1;rounded=0;exitX=0.5;exitY=1;exitDx=0;exitDy=0;entryX=0.5;entryY=0;entryDx=0;entryDy=0;" edge="1" parent="OXJLY-2gsCn3-yETwT6d-1" source="OXJLY-2gsCn3-yETwT6d-3" target="OXJLY-2gsCn3-yETwT6d-5">
          <mxGeometry relative="1" as="geometry">
            <mxPoint x="200" y="220" as="sourcePoint" />
            <mxPoint x="300" y="220" as="targetPoint" />
          </mxGeometry>
        </mxCell>
        <mxCell id="OXJLY-2gsCn3-yETwT6d-7" value="Click" style="edgeLabel;resizable=0;html=1;;align=center;verticalAlign=middle;" connectable="0" vertex="1" parent="OXJLY-2gsCn3-yETwT6d-6">
          <mxGeometry relative="1" as="geometry" />
        </mxCell>
        <mxCell id="OXJLY-2gsCn3-yETwT6d-8" value="Clock menu" style="text;html=1;align=center;verticalAlign=middle;resizable=0;points=[];autosize=1;strokeColor=none;fillColor=none;" vertex="1" parent="OXJLY-2gsCn3-yETwT6d-1">
          <mxGeometry x="10" y="180" width="90" height="30" as="geometry" />
        </mxCell>
        <mxCell id="OXJLY-2gsCn3-yETwT6d-9" value="Alarm mode&lt;div&gt;(change button functions)&lt;/div&gt;" style="whiteSpace=wrap;html=1;" vertex="1" parent="OXJLY-2gsCn3-yETwT6d-1">
          <mxGeometry x="290" y="50" width="120" height="60" as="geometry" />
        </mxCell>
        <mxCell id="OXJLY-2gsCn3-yETwT6d-10" value="Alarm goes&amp;nbsp;&lt;div&gt;off&lt;/div&gt;" style="text;html=1;align=center;verticalAlign=middle;resizable=0;points=[];autosize=1;strokeColor=none;fillColor=none;" vertex="1" parent="OXJLY-2gsCn3-yETwT6d-1">
          <mxGeometry x="200" y="80" width="90" height="40" as="geometry" />
        </mxCell>
        <mxCell id="OXJLY-2gsCn3-yETwT6d-11" style="edgeStyle=orthogonalEdgeStyle;rounded=0;orthogonalLoop=1;jettySize=auto;html=1;entryX=0.5;entryY=0;entryDx=0;entryDy=0;" edge="1" parent="OXJLY-2gsCn3-yETwT6d-1" source="OXJLY-2gsCn3-yETwT6d-12" target="OXJLY-2gsCn3-yETwT6d-14">
          <mxGeometry relative="1" as="geometry" />
        </mxCell>
        <mxCell id="OXJLY-2gsCn3-yETwT6d-12" value="Set time" style="whiteSpace=wrap;html=1;" vertex="1" parent="OXJLY-2gsCn3-yETwT6d-1">
          <mxGeometry x="317.5" y="140" width="75" height="40" as="geometry" />
        </mxCell>
        <mxCell id="OXJLY-2gsCn3-yETwT6d-13" style="edgeStyle=orthogonalEdgeStyle;rounded=0;orthogonalLoop=1;jettySize=auto;html=1;entryX=0.5;entryY=0;entryDx=0;entryDy=0;" edge="1" parent="OXJLY-2gsCn3-yETwT6d-1" source="OXJLY-2gsCn3-yETwT6d-14" target="OXJLY-2gsCn3-yETwT6d-18">
          <mxGeometry relative="1" as="geometry" />
        </mxCell>
        <mxCell id="OXJLY-2gsCn3-yETwT6d-14" value="Set alarm" style="whiteSpace=wrap;html=1;" vertex="1" parent="OXJLY-2gsCn3-yETwT6d-1">
          <mxGeometry x="317.5" y="200" width="75" height="40" as="geometry" />
        </mxCell>
        <mxCell id="OXJLY-2gsCn3-yETwT6d-15" style="edgeStyle=orthogonalEdgeStyle;rounded=0;orthogonalLoop=1;jettySize=auto;html=1;entryX=1;entryY=0.5;entryDx=0;entryDy=0;" edge="1" parent="OXJLY-2gsCn3-yETwT6d-1" source="OXJLY-2gsCn3-yETwT6d-16" target="OXJLY-2gsCn3-yETwT6d-12">
          <mxGeometry relative="1" as="geometry">
            <Array as="points">
              <mxPoint x="412.5" y="340" />
              <mxPoint x="412.5" y="160" />
            </Array>
          </mxGeometry>
        </mxCell>
        <mxCell id="OXJLY-2gsCn3-yETwT6d-16" value="12/24h" style="whiteSpace=wrap;html=1;" vertex="1" parent="OXJLY-2gsCn3-yETwT6d-1">
          <mxGeometry x="317.5" y="320" width="75" height="40" as="geometry" />
        </mxCell>
        <mxCell id="OXJLY-2gsCn3-yETwT6d-17" style="edgeStyle=orthogonalEdgeStyle;rounded=0;orthogonalLoop=1;jettySize=auto;html=1;entryX=0.5;entryY=0;entryDx=0;entryDy=0;" edge="1" parent="OXJLY-2gsCn3-yETwT6d-1" source="OXJLY-2gsCn3-yETwT6d-18" target="OXJLY-2gsCn3-yETwT6d-16">
          <mxGeometry relative="1" as="geometry" />
        </mxCell>
        <mxCell id="OXJLY-2gsCn3-yETwT6d-18" value="Alarm on/off" style="whiteSpace=wrap;html=1;" vertex="1" parent="OXJLY-2gsCn3-yETwT6d-1">
          <mxGeometry x="317.5" y="260" width="75" height="40" as="geometry" />
        </mxCell>
        <mxCell id="OXJLY-2gsCn3-yETwT6d-19" style="edgeStyle=orthogonalEdgeStyle;rounded=0;orthogonalLoop=1;jettySize=auto;html=1;entryX=0;entryY=0.5;entryDx=0;entryDy=0;" edge="1" parent="OXJLY-2gsCn3-yETwT6d-1">
          <mxGeometry relative="1" as="geometry">
            <mxPoint x="45" y="380" as="sourcePoint" />
            <mxPoint x="45" y="240" as="targetPoint" />
            <Array as="points">
              <mxPoint x="25" y="380" />
              <mxPoint x="25" y="240" />
            </Array>
          </mxGeometry>
        </mxCell>
        <mxCell id="OXJLY-2gsCn3-yETwT6d-20" value="Click" style="text;html=1;align=center;verticalAlign=middle;resizable=0;points=[];autosize=1;strokeColor=none;fillColor=none;" vertex="1" parent="OXJLY-2gsCn3-yETwT6d-1">
          <mxGeometry y="290" width="50" height="30" as="geometry" />
        </mxCell>
        <mxCell id="OXJLY-2gsCn3-yETwT6d-21" value="Timeout" style="text;html=1;align=center;verticalAlign=middle;resizable=0;points=[];autosize=1;strokeColor=none;fillColor=none;" vertex="1" parent="OXJLY-2gsCn3-yETwT6d-1">
          <mxGeometry x="-30" y="68" width="70" height="30" as="geometry" />
        </mxCell>
        <mxCell id="OXJLY-2gsCn3-yETwT6d-22" value="Encoder 1" style="swimlane;whiteSpace=wrap;html=1;startSize=23;" vertex="1" parent="1">
          <mxGeometry x="600" y="40" width="160" height="160" as="geometry" />
        </mxCell>
        <mxCell id="OXJLY-2gsCn3-yETwT6d-23" value="Encoder 2" style="swimlane;whiteSpace=wrap;html=1;" vertex="1" parent="1">
          <mxGeometry x="600" y="240" width="160" height="160" as="geometry" />
        </mxCell>
        <mxCell id="OXJLY-2gsCn3-yETwT6d-24" value="Interupt and shit" style="text;whiteSpace=wrap;html=1;" vertex="1" parent="OXJLY-2gsCn3-yETwT6d-23">
          <mxGeometry x="30" y="78" width="120" height="40" as="geometry" />
        </mxCell>
        <mxCell id="OXJLY-2gsCn3-yETwT6d-25" value="Radio menu" style="text;html=1;align=center;verticalAlign=middle;resizable=0;points=[];autosize=1;strokeColor=none;fillColor=none;" vertex="1" parent="1">
          <mxGeometry x="135" y="358" width="90" height="30" as="geometry" />
        </mxCell>
        <mxCell id="OXJLY-2gsCn3-yETwT6d-26" style="edgeStyle=orthogonalEdgeStyle;rounded=0;orthogonalLoop=1;jettySize=auto;html=1;entryX=0;entryY=0.5;entryDx=0;entryDy=0;" edge="1" parent="1" source="OXJLY-2gsCn3-yETwT6d-27" target="OXJLY-2gsCn3-yETwT6d-3">
          <mxGeometry relative="1" as="geometry">
            <Array as="points">
              <mxPoint x="130" y="440" />
              <mxPoint x="130" y="140" />
            </Array>
          </mxGeometry>
        </mxCell>
        <mxCell id="OXJLY-2gsCn3-yETwT6d-27" value="101.9 FM&lt;div&gt;channel name/info&lt;/div&gt;" style="whiteSpace=wrap;html=1;" vertex="1" parent="1">
          <mxGeometry x="160" y="380" width="160" height="80" as="geometry" />
        </mxCell>
        <mxCell id="OXJLY-2gsCn3-yETwT6d-28" value="" style="endArrow=classic;html=1;rounded=0;exitX=0.5;exitY=1;exitDx=0;exitDy=0;entryX=0.5;entryY=0;entryDx=0;entryDy=0;" edge="1" parent="1" source="OXJLY-2gsCn3-yETwT6d-5" target="OXJLY-2gsCn3-yETwT6d-27">
          <mxGeometry relative="1" as="geometry">
            <mxPoint x="280" y="320" as="sourcePoint" />
            <mxPoint x="380" y="320" as="targetPoint" />
          </mxGeometry>
        </mxCell>
        <mxCell id="OXJLY-2gsCn3-yETwT6d-29" value="Click" style="edgeLabel;resizable=0;html=1;;align=center;verticalAlign=middle;" connectable="0" vertex="1" parent="OXJLY-2gsCn3-yETwT6d-28">
          <mxGeometry relative="1" as="geometry" />
        </mxCell>
        <mxCell id="OXJLY-2gsCn3-yETwT6d-30" style="edgeStyle=orthogonalEdgeStyle;rounded=0;orthogonalLoop=1;jettySize=auto;html=1;exitX=0;exitY=0.75;exitDx=0;exitDy=0;entryX=1;entryY=0.75;entryDx=0;entryDy=0;" edge="1" parent="1" source="OXJLY-2gsCn3-yETwT6d-31" target="OXJLY-2gsCn3-yETwT6d-5">
          <mxGeometry relative="1" as="geometry">
            <Array as="points">
              <mxPoint x="410" y="300" />
            </Array>
          </mxGeometry>
        </mxCell>
        <mxCell id="OXJLY-2gsCn3-yETwT6d-31" value="" style="swimlane;startSize=0;" vertex="1" parent="1">
          <mxGeometry x="410" y="170" width="130" height="240" as="geometry" />
        </mxCell>
        <mxCell id="OXJLY-2gsCn3-yETwT6d-32" style="edgeStyle=orthogonalEdgeStyle;rounded=0;orthogonalLoop=1;jettySize=auto;html=1;" edge="1" parent="1" source="OXJLY-2gsCn3-yETwT6d-5">
          <mxGeometry relative="1" as="geometry">
            <mxPoint x="410" y="260" as="targetPoint" />
            <Array as="points">
              <mxPoint x="410" y="260" />
            </Array>
          </mxGeometry>
        </mxCell>
        <mxCell id="OXJLY-2gsCn3-yETwT6d-33" value="Interupt and shit" style="text;html=1;align=center;verticalAlign=middle;resizable=0;points=[];autosize=1;strokeColor=none;fillColor=none;" vertex="1" parent="1">
          <mxGeometry x="615" y="108" width="110" height="30" as="geometry" />
        </mxCell>
      </root>
    </mxGraphModel>
  </diagram>
</mxfile>
